<mxfile host="www.draw.io" modified="2019-11-02T09:10:54.854Z" agent="Mozilla/5.0 (Windows NT 10.0; Win64; x64; rv:70.0) Gecko/20100101 Firefox/70.0" etag="X62fpgtSdugGcJ_4aOKC" version="12.1.9" type="github" pages="1">
  <diagram id="dRT8GzarHK4bu25VwNny" name="Page-1">
    <mxGraphModel dx="988" dy="675" grid="1" gridSize="10" guides="1" tooltips="1" connect="1" arrows="1" fold="1" page="1" pageScale="1" pageWidth="827" pageHeight="1169" math="0" shadow="0">
      <root>
        <mxCell id="0"/>
        <mxCell id="1" parent="0"/>
        <mxCell id="A8goNR1U0Rvd56E_ozio-1" value="&lt;font size=&quot;1&quot;&gt;&lt;b style=&quot;font-size: 15px&quot;&gt;LEGIONELLA&lt;/b&gt;&lt;/font&gt;" style="shape=hexagon;perimeter=hexagonPerimeter2;whiteSpace=wrap;html=1;fillColor=#f8cecc;strokeColor=#b85450;" parent="1" vertex="1">
          <mxGeometry x="340" y="320" width="120" height="80" as="geometry"/>
        </mxCell>
        <mxCell id="A8goNR1U0Rvd56E_ozio-2" value="&lt;div style=&quot;font-size: 14px&quot;&gt;TEMPERATURE/&lt;/div&gt;&lt;div style=&quot;font-size: 14px&quot;&gt;FLOW&lt;br style=&quot;font-size: 14px&quot;&gt;&lt;/div&gt;" style="rounded=0;whiteSpace=wrap;html=1;fontStyle=1;fontSize=14;fillColor=#dae8fc;strokeColor=#6c8ebf;" parent="1" vertex="1">
          <mxGeometry x="340" y="210" width="120" height="70" as="geometry"/>
        </mxCell>
        <mxCell id="A8goNR1U0Rvd56E_ozio-5" value="EXTERNAL FACTORS (?)" style="rounded=0;whiteSpace=wrap;html=1;fontStyle=1;fontSize=14;fillColor=#e1d5e7;strokeColor=#9673a6;" parent="1" vertex="1">
          <mxGeometry x="530" y="325" width="120" height="70" as="geometry"/>
        </mxCell>
        <mxCell id="A8goNR1U0Rvd56E_ozio-6" value="&lt;p style=&quot;line-height: 40%&quot;&gt;&lt;/p&gt;&lt;div&gt;- presence of legionella in incoming water;&lt;/div&gt;&lt;div&gt;- biofilm in pipe system;&lt;/div&gt;&lt;div&gt;- influence of flushing on results.&lt;br&gt;&lt;/div&gt;&lt;p&gt;&lt;/p&gt;" style="text;html=1;strokeColor=none;fillColor=none;align=left;verticalAlign=middle;whiteSpace=wrap;rounded=0;fontSize=14;" parent="1" vertex="1">
          <mxGeometry x="530" y="410" width="260" height="80" as="geometry"/>
        </mxCell>
        <mxCell id="A8goNR1U0Rvd56E_ozio-7" value="" style="endArrow=classic;startArrow=classic;html=1;fontSize=14;entryX=0.5;entryY=1;entryDx=0;entryDy=0;exitX=0.5;exitY=0;exitDx=0;exitDy=0;" parent="1" source="A8goNR1U0Rvd56E_ozio-1" target="A8goNR1U0Rvd56E_ozio-2" edge="1">
          <mxGeometry width="50" height="50" relative="1" as="geometry">
            <mxPoint x="340" y="570" as="sourcePoint"/>
            <mxPoint x="390" y="520" as="targetPoint"/>
          </mxGeometry>
        </mxCell>
        <mxCell id="A8goNR1U0Rvd56E_ozio-8" value="" style="endArrow=classic;startArrow=classic;html=1;fontSize=14;entryX=0;entryY=0.5;entryDx=0;entryDy=0;exitX=1;exitY=0.5;exitDx=0;exitDy=0;" parent="1" source="A8goNR1U0Rvd56E_ozio-1" target="A8goNR1U0Rvd56E_ozio-5" edge="1">
          <mxGeometry width="50" height="50" relative="1" as="geometry">
            <mxPoint x="340" y="570" as="sourcePoint"/>
            <mxPoint x="390" y="520" as="targetPoint"/>
          </mxGeometry>
        </mxCell>
        <mxCell id="cLAxR8d1bhYkGD7KSmtE-1" value="being home" style="rhombus;whiteSpace=wrap;html=1;fillColor=#fff2cc;strokeColor=#d6b656;fontStyle=1;fontSize=14;" vertex="1" parent="1">
          <mxGeometry x="240" y="240" width="80" height="80" as="geometry"/>
        </mxCell>
        <mxCell id="cLAxR8d1bhYkGD7KSmtE-2" value="location" style="rhombus;whiteSpace=wrap;html=1;fontSize=14;fontStyle=1;fillColor=#fff2cc;strokeColor=#d6b656;" vertex="1" parent="1">
          <mxGeometry x="180" y="320" width="80" height="80" as="geometry"/>
        </mxCell>
        <mxCell id="cLAxR8d1bhYkGD7KSmtE-4" value="period" style="rhombus;whiteSpace=wrap;html=1;fillColor=#fff2cc;strokeColor=#d6b656;fontStyle=1;fontSize=14;" vertex="1" parent="1">
          <mxGeometry x="240" y="400" width="80" height="80" as="geometry"/>
        </mxCell>
      </root>
    </mxGraphModel>
  </diagram>
</mxfile>
